<svg xmlns="http://www.w3.org/2000/svg" viewBox="0 0 2048 1365" width="2048" height="1365">
  <title>8 Ways to Work Smarter in 2020</title>
  <desc>A flat, thick-lined, 6-color illustration of an office chair with a red and white vertically striped flag strapped to the backrest in motion, moving from left to right, in an empty office room with a orange wall and blue floor.</desc>
  <path fill="#000" d="M.1 1364.9C.1 911.5.1 458 0 4.6 0 .8.8 0 4.6 0c679.6.1 1359.2.1 2038.8 0 3.7 0 4.6.8 4.6 4.6-.1 451.9-.1 903.9 0 1355.8 0 3.7-.8 4.6-4.6 4.6m-629.6-542.2c7.5-.8 14.7-2.2 22.1-1.8 18.2 1.1 33.4 7.8 40.6 25.6 8.1 20.3 6.6 40.5-5.4 59.2-7.9 12.2-19.2 18.5-34.1 18.1-9.2-.3-18.3.1-27.5-.1-3.1-.1-4.2.8-4.6 4-3 28.4-26.4 53.3-57.8 52.4-20.8-.6-41.7 0-62.5-.2-3.6 0-5 .7-4.8 4.6.3 6.8.4 13.7 0 20.5-.2 4.3.8 6.2 5.4 5.5 4.3-.6 6 1.5 5.9 5.8-.2 8.2 0 16.3-.1 24.5 0 2.8-.5 5.5 3.6 6.3 1.9.3 2.1 2.7 2.1 4.6 0 4.7.1 9.3 0 14-.1 2.4.4 3.8 3.2 3.6 3.9-.2 5.1 2.1 5.1 5.7-.1 10.2 0 20.3 0 30.5 0 12.5 7 20.2 19.6 21.1 24.4 1.8 48.9 3.3 73.3 5 35.2 2.4 70.5 4.5 105.7 7.2 12.6 1 23.9 6 32.8 15.2 2.7 2.9 5.3 3.7 9 3.7 162.7-.1 325.3-.1 488-.1 6.6 0 6.6 0 6.6-6.6 0-378.9 0-757.9.1-1136.8 0-5-.9-6.6-6.3-6.6-673.2.4-1346.3.4-2019.4.3C9.2 8 8 9.2 8 14.4c.1 379.1.1 758.2 0 1137.3 0 5.4 1.6 6.3 6.6 6.3 309.8-.1 619.6-.1 929.4-.1.8 0 1.7-.1 2.5 0 2.4.3 4-.6 5.6-2.4 9-10 20.7-15.4 33.8-16.5 29.4-2.4 58.8-4.1 88.2-6.1 30.4-2 60.8-3.9 91.2-6.1 12.6-.9 19.4-8.7 19.4-21.3V1075c0-2.4.2-5.4 3.2-5.2 5.4.3 5.4-2.7 5.1-6.5-.2-1.8-.2-3.7 0-5.5.5-4.4-2.3-10 4.8-11.9 1.2-.3.7-2.4.7-3.7v-23.5c0-7.6.2-7.9 7.8-8 2.8-.1 3.8-.8 3.7-3.7-.2-7.3-.3-14.7 0-22 .2-4.1-1.3-4.9-5.1-4.9-21.2.2-42.3 0-63.5.1-11 .1-21.1-2.5-30.3-8.4-2.1-1.4-4.2-1.8-6.6-1.7-12.3.1-24.7 0-37 0-2 0-4.6.5-5.3-1.7-1-3.5-3.7-3.7-6.4-4.5-59.6-19.3-100.5-58.1-122.1-117-9.3-25.3-10-51.8-11.7-78.2-1.1-16.6-2.2-33.2-3.2-49.9-.2-3.2-1-4.6-4.7-4.1-8.1 1.1-16.2 1.7-24.4 2.4-7.3.6-7.8.2-8.5-7.3-3.7-37.6-7.5-75.2-11-112.9-.4-4.2-2.9-4.5-5.5-4.6-2.9-.1-1.5 2.7-1.7 4.2-.4 3.6-.4 7.3-.5 11-.4 11.3-.1 22.6-2.1 33.9-2.6 14.2-8.7 27.2-13.1 40.8-1.9 6-8.7 8.9-14.7 7.4-6.7-1.7-10.7-7.4-9.9-14.2.5-4.3 1.8-8.5 3.6-12.4 7.8-17.5 10.5-35.8 10.2-55-.3-18.6 1.7-36.9 13-52.9 2.5-3.5-1.1-9.5-5.4-9.8-5.9-.4-11.6.9-17.3 2-7.3 1.4-13.8-2.5-15.5-9.2-1.8-6.9 2.1-13.8 9.4-15.9 8.4-2.4 17-3.7 25.7-2.7 4.2.5 7.3.6 8.2-4.5.2-1 1.2-2.3 2.1-2.7 5.7-2.5 4.5-7.2 4-11.8-1.6-15.4-3.1-30.8-4.6-46.2-2.6-25.7-5.2-51.4-7.6-77-.3-3.1-1.3-4.1-4.3-4.5-24.9-3.1-49.9-2.4-74.8 0-25.7 2.5-51.3 5.7-77 8.3-37.8 3.8-75.6 2.5-113.3-.1-48.3-3.4-96.5-8.4-145.1-8.2-16.8.1-33.6-.9-50.4-1.7-22.6-1.2-45.2-2.7-67.5-7.1-19.9-3.9-39.6-8.6-59.7-11.8-23-3.7-46.5-3.8-69.6-6.9-19.4-2.6-38.3-7-55.4-17-8.8-5.1-16-11.9-20.6-21.1-6.9-13.8-4.8-26.1 6.1-36.9 7.1-7 15.5-12.2 24.8-15.6 32.2-12.1 64.6-23.6 98.2-31.3 23.5-5.3 47.6-7.9 71.2-12.5 27.8-5.5 54.8-13.8 82.1-21.1 38.5-10.3 77.2-19.5 117-22.1 35-2.3 69.4-7.4 103.7-14.9 50.7-11 101.9-18.1 153.9-18.5 17.5-.1 34.8-2.6 51.6-8 3-1 4.2-2.2 3.7-5.5-.8-5.4-1-10.9-1.8-16.4-.6-4.5.5-7 5.5-7.3 9.8-.8 19.6-1.8 29.3-2.8 8.5-.9 9-.5 9.8 7.9 2.4 25.4 4.8 50.7 7.3 76.1 4.2 42.3 8.5 84.5 12.7 126.7 4.4 44.1 8.7 88.1 13 132.2.3 2.8 1 3.7 3.9 3.3 11.2-1.5 22.5-2.8 33.7-4.1 2.4-.3 2.6-1.3 2.4-3.3-2.8-22.6-5.1-45.3-8.3-67.9-1.8-13 2.4-22.9 12.4-30.6 9.5-7.4 20.5-11.6 32.1-14.4 23.9-5.6 45.6 5.8 53 29.1 6.5 20.4 11.3 41.4 13.1 62.9 2 23.2 3.9 46.5 5.8 69.7.2 2.4.7 3.8 3.4 4.5 5.1 1.4 8.2 4.9 9 10.3.8 5.3-.9 9.8-5.5 12.5-3.3 2-3.1 3.9-1.8 6.8 4 9.6 6.6 19.6 6.7 30 .1 7-.4 14-.7 21-.1 2.7.6 4.3 3.4 5.7 8 4 10.1 14.7 3.4 20-4.8 3.8-4.2 7.2-2.9 11.8 5 17.8 9.3 35.8 9.3 54.4 0 3.7 1.9 2.5 3.8 1.9 33-11.3 67-17.6 101.7-18.9 53.6-2 107.3-3.1 160.8 1.5 43.9 3.7 85.6 15.6 125.3 34.6 14.7 7 21.2 22.9 15.7 37.7-5.6 15-21 22.7-36.9 18.1-3.2-.9-4-.2-4.4 2.8-2.4 20-7 39.6-13.2 58.8-3.3 8.7-6.9 17.8-10.3 27.4zm-29 361.1c2.7 1.5 4.2 2.4 5.8 3.3 16.6 9.6 24.4 29.2 19.2 47.8-5.3 18.6-22.4 30.6-42.8 29.9-17.8-.6-34.3-14.5-38-32.7-1.2-6.1-1.6-12.3-5.8-17.5-1-1.2-1.1-3.1-1.3-4.7-1.2-7-.6-14-.4-20.9.1-4.2-1.2-5.2-5.3-5.2-44.2.2-88.3.1-132.5.1h-3.6c.6 1.2 1.3 1.6 2 2 17.7 9.2 26.2 27.4 22 46.9-4.3 20-23.2 33.6-44.6 32.1-19.7-1.4-36.5-18.5-37.5-38.4-.2-2.9-.7-5.4-2.7-7.7-3-3.6-4.1-7.9-4.2-12.5 0-5.8-.3-11.7.1-17.5.3-4.1-1.3-4.9-5.1-4.9-33.3.1-66.7.1-100 .1-1 0-2.2-.5-3.3.6 2 1.2 3.9 2.2 5.7 3.3 15.9 9.9 23.4 29.2 18.2 46.9-5.6 18.9-22.2 30.7-42.6 30.2-17.7-.5-34-13.9-38-32-1.4-6.4-1.9-12.9-6.1-18.4-1.2-1.6-1.7-4.1-1.7-6.2.4-13.3-2.1-26.7 1.9-39.7.6-2.1.2-2.7-1.8-2.6-1.5.1-3 0-4.5 0H15.5c-1.2 0-2.4.1-3.5 0-3.2-.4-3.9 1-3.9 3.9.1 61 .1 122 0 183 0 3.4 1.1 4.1 4.3 4.1 15.7-.1 31.3-.1 47-.1h1973.8c6.8 0 6.8 0 6.8-6.9 0-59.3-.1-118.6.1-178 0-5.2-1.5-6.2-6.3-6.2-161 .1-322 .1-482.9.1h-5.6c.7 3.6 1.8 6.9 1.8 10.1.1 4.2 1.7 5.8 5.9 6.7 21.3 4.7 35.3 25.5 31.9 46.9-3.1 19.3-19.9 34.7-38.6 35.3-21.7.7-38.9-12.1-43.4-32.8-1.3-5.9-1.3-12-5.6-17.1-2.1-2.4-2.1-6.2-2.1-9.6 0-5.5-.3-11 .1-16.5.3-4.3-1.3-5.2-5.3-5.1-33.3.2-66.7.1-100 .1-1.4-.2-2.6-.2-5.2-.2zm-137.3-535.7c-9.5 0-19-.1-28.5 0-38.4.3-76.7 2.4-114.2 11.8-23.8 6-46.6 14.5-68.7 25.1-9.4 4.5-13.8 13.4-12.1 23.8 1.4 9.1 8.8 15.9 18.6 17.3 5.2.8 9.8-.7 14.3-3 6-3 8-1.8 8.8 4.9.2 1.8.1 3.7.4 5.5 4.9 35.3 14.9 69.1 30.2 101.2 17.9 37.5 41.8 71.1 68.6 102.7 7.2 8.5 15.3 14.5 26.1 17.1 2.8.7 4.1.4 4-3.1-.2-11.2.1-22.3-.2-33.5-.1-4.8 1.5-6.5 6.3-6.5 29.2.1 58.3.1 87.5 0 4.8 0 6.5 2 6.4 6.6-.2 11.5-.1 23-.1 34.5 0 1.9-.3 3.8 2.7 3.3 10.3-1.9 20.4-4.4 27.8-12.8 21.1-23.6 40.1-48.7 56.3-75.9 26-43.6 43.1-90.3 48.2-141.1.4-4.1 3-4.8 6.4-3.9 1.7.5 3.2 1.6 4.9 2.3 11.2 4.7 23.7.1 28.7-10.5 5.1-11 .7-23.5-10.5-29-47.2-23-97.2-34.2-149.5-36-20.8-.7-41.6-1.3-62.4-.8zm-548.6-502c-16.5 1.9-32.6 4.4-48.6 7.5-25.1 4.8-50.2 9.8-75.4 14.6-3.3.6-4.2 1.9-4.3 5.1-1.1 37.8-1.1 75.6.5 113.4 1.2 27.4 3.2 54.8 7.8 82 .4 2.6.8 4.2 4 4.3 14.5.5 28.9 1.5 43.4 2 30.5 1 60.9-1.1 91.2-5 2.8-.4 3.5-.9 2.8-3.9-6-25.5-9.6-51.3-12.3-77.3-3.7-35.6-5.8-71.3-7.4-107.1-.4-11.9-1.1-23.7-1.7-35.6zM846.8 362c-2-21-4-42.1-6.1-63.1-2.8-28.6-5.8-57.3-8.7-85.9-2.5-25.2-4.9-50.4-7.3-75.5-.3-3.1-.8-4.8-4.8-3.4-17.4 5.8-35.4 7.5-53.6 8.1-17.8.6-35.6 1.2-53.4 2.6-5.1.4-6.3 1.8-6 6.7 2.7 44.5 4.2 89.1 8.8 133.5 2.7 25.8 6 51.6 11.8 76.9 1.6 7 0 6.9 8.8 5.9 35.8-4.1 71.6-7.5 107.6-3.2 2.5.2 3.4-.4 2.9-2.6zm692.2 813.8c-1.8-8.8-6.6-15-13.3-20-10.8-8.2-23.6-9-36.4-9.8l-67.8-4.2c-24.1-1.6-48.2-3-72.2-4.9-10.3-.8-20.7-.4-30.7-2.8-14.5-3.6-21.6-12.6-21.6-27.3 0-8.5-.1-17 .1-25.5 0-2.5-.5-3.3-3.3-3.3-32.3.1-64.6.2-97 0-3.7 0-4 1.3-3.9 4.2.1 8 .1 16 0 24 0 14.9-7.1 24.8-21.8 27.9-15.7 3.3-31.8 2.7-47.7 4-17.3 1.4-34.5 2.2-51.8 3.4-18.4 1.2-36.9 2.3-55.3 3.8-11.6.9-23.4.6-34.7 3.1-13.2 2.9-24 9.5-29.6 22.6-2 4.8-1.7 5.1 3.6 5.1l141-.3c5 0 10-.1 15 0 2.6.1 4-.3 4.6-3.5 1.4-7.3 5.5-13.4 11.1-18.4 8.1-7.3 17.8-11.6 28.3-13.6 21-4 42.1-7.5 63.1-11.1 10.7-1.8 16.2-6.4 18.5-16.4.6-2.7 2-4.9 5-4.2 2.8.7 3.8 3 3.3 5.9-1.9 11.7-9.3 18.8-20.2 21.5-12.9 3.1-26 4.8-39.1 7.2-12.8 2.4-26 3.3-38.3 8-9.9 3.8-18.5 9.2-22.7 19.5-2.2 5.3-2 5.4 3.6 5.4 22.6-.2 45.3-.5 67.9-.5 55.1 0 110.3.2 165.4.3 47.1.1 94.3.2 141.4.3 11.9-.4 23.5-.4 35.5-.4zM562.4 223.6c0-16.1-.1-32.3.1-48.4 0-3.5-.7-4.7-4.5-4.2-14.7 1.9-29.4 3.2-44.2 4.2-24.8 1.8-49.2 5.7-73.4 11-2.4.5-3.2 1.6-3.5 4-2.5 20.3-4.2 40.7-4.8 61.2-1 35.6.3 71.2 4.6 106.7.6 4.8 1.6 6.4 6.7 6.5 41.3.6 82.4 3.8 123.6 7.4 3.3.3 4.4-.3 3.8-3.9-2.7-15.2-4.3-30.6-5.5-46-2.6-32.9-3.7-65.7-2.9-98.5zm-259.7 84.7c-.1 13.8.1 27.6.9 41.4.2 2.6 1.1 3.8 3.7 4.2 7.7 1.3 15.4 2.9 23.1 4.1 31.4 4.9 63 5 94.6 6.1 4.5.2 4.4-1.8 4-4.9-2.3-17.2-3.7-34.4-4.4-51.7-1.5-35.8-.9-71.6 3.2-107.2 1.4-11.8 1.6-11.8-9.7-8.9-.2 0-.3.1-.5.2-34.8 8.5-69 19.6-104.2 26.7-2.4.5-3 1.7-3.4 4-4.6 28.5-7.1 57.1-7.3 86zm758.4 648.4v-30c0-1.7-.1-2.7-2.3-2.8-14.4-.5-25.6-7.8-31.5-20.2-5.9-12.3-13.7-22.7-23-32.4-2.5-2.6-4.5-5.8-6.5-8.8-15.2-22-22.5-46.4-23.9-73.1-1.7-31.7-4.6-63.4-6.6-95.1-1.9-29.4-4.9-58.7-7.3-88-.3-3.5-1.2-5.4-5.3-5.4-11.5 0-23-.8-34.4-2.1-3.2-.4-3.6 1-3.3 3.6.5 4.5.9 8.9 1.3 13.4 1.6 16.9 3.2 33.8 4.6 50.6 1.3 15.2 2.3 30.5 3.3 45.8 1.3 17.8 2.4 35.5 3.7 53.3 1.2 16.7 1.3 33.6 4.2 50.2 7.8 44 29.2 80.4 64 108.5 18.6 15.3 39.4 25.9 63 32.5zM938 358.4c1.5 13 2.9 26.4 4.6 39.7 1.7 13.8 3.6 27.6 5.4 41.5 2.5 19.4 5.2 38.8 7.4 58.3.6 4.8 2.6 5.7 6.8 5 9.7-1.4 19.5-2.4 29.1-4 14.6-2.4 29.3-4.2 43.2-9.5 3.7-1.4 4.7-3.4 4.4-7.1-2.4-26.3-4.2-52.7-7.1-78.9-2-18-6.3-35.7-12-52.9-4.9-14.7-17.8-24.6-32.8-24-16.9.7-32.2 6.5-44.2 19.2-3.2 3.4-4.7 7.6-4.8 12.7zM185 303c-.3 9 .4 19.1 1.1 29.3.2 3.4 1.2 5 4.9 5.2 4.5.1 8.9 1.3 13.4 1.5 29.3 1.6 58.4 4.9 86.9 11.6 3.2.8 4.1.1 3.9-3.2-.4-8.1-.7-16.3-.8-24.5-.4-32.9 1.9-65.5 6.9-98 .6-3.9-.6-4.3-3.7-3.7-3.8.7-7.5 1.4-11.3 1.9-31.4 4.9-62.7 10.2-92.6 21.8-3.2 1.2-4.7 2.6-5.2 6.1-2.1 16.9-3.8 33.8-3.5 52zm810.8 299c-6.8 0-14.6.3-22.4-.1-4.6-.2-5.9 1.2-5.4 5.6 2.2 19.1 3.7 38.4 5.2 57.6 1.8 22.4 3.5 44.7 4.8 67.1.3 6 1.8 11.4 5.2 16.4 7.6 10.9 18.2 15.9 31.3 16.9 17 1.3 35-11.8 38.9-28.2.8-3.3-.6-3.5-3-3-2.5.6-4.9.9-7.4.6-14.3-1.5-24.7-11.4-27.4-26.2-2.2-12.3 4.6-25.1 16.9-30.9 8.9-4.2 17.9-8 27-11.7 2.6-1.1 3.5-2.4 3.5-5.1 0-6.8-.8-13.6-1.5-20.4-1.3-13.5-6.3-26.1-8.8-39.4-.4-2.2-1.4-2.8-3.8-2.4-17.2 2.9-34.6 3.5-53.1 3.2zm363.1 313.5c1.6.2 2.2.4 2.8.4 26.1 0 52.3.1 78.4 0 6.9 0 13-2.6 18-7.5 13.7-13.3 16.8-29.8 13.9-47.7-3-18.5-12.5-27.5-30.9-30.9-8.4-1.5-16.5.3-24.8.9-5.4.4-7.8 2.7-9.8 7.3-6.5 14.6-14.5 28.4-23 42-7.4 11.9-15.5 23.5-24.6 35.5zm-222.6.4c-1-1.8-1.5-2.6-2-3.4-18.9-25.2-35.4-51.9-48.3-80.7-.8-1.9-2-2.6-4.1-3-7.5-1.3-15-1.3-22.4-.5-13.4 1.4-24.4 7-29.3 20.5-5.6 15.4-5.5 31 1.4 46.1 6.4 14 16.9 21.6 33 21.1 14.1-.5 28.3-.1 42.4-.1h29.3zm108.4 56.1c34.5 0 69-.4 103.4.1 23 .4 44.7-17 48.9-44.2.5-3.3-.7-4.1-3.9-4.1-11.8.2-23.6.2-35.5 0-3.6-.1-6.1.7-8.3 3.9-3.2 4.6-7.1 8.8-10.8 13.1-5.7 6.7-11.3 13.4-19.6 17.4-12.3 5.9-26 5.8-38.7 9.6-28.2-2-56.6 3.9-84.7-3.7-12.9-3.5-25.2-6.9-33.9-17.9-5.2-6.5-10.8-12.7-16-19.1-1.8-2.3-3.7-3.2-6.7-3.2-13.3.2-26.6.1-40 .1-7.1 0-7.2 0-6 6.9 4.3 23.6 24.7 41.6 48.2 41.3 34.6-.6 69.1-.2 103.6-.2zm-226.9-97.7c.4-5.5.7-9.9 1.2-14.4 2-20.1 13.3-33.6 31.7-38.3 8-2 16.2-1.9 24.3-1.7h5.8c-9.9-24.4-16.8-48.9-21.3-75.2-7.8 16.3-19.7 25.6-36.4 28.2-16.5 2.5-30.7-2.8-43.3-15 .4 6.5.7 11.9 1.1 17.3 1.1 14.2 1.3 28.6 5 42.5 5.8 21.4 16.1 40 31.9 56.6zm-21.9-298.4c14.8.2 29.6.4 44.3-1.9 9.4-1.5 9.5-1.3 9.6-10.5 0-2 .1-4 .2-6 .4-11.2.5-22.2-3.5-33-3.8-10-3.6-10.2-13.9-7.5-22.6 6-45.7 8.7-68.7 11.7-3.3.4-4.2 1.6-3.9 4.7 1.5 12.7 3 25.4 4.4 38.1.3 3.1 1.6 4.6 5.1 4.5 8.8-.2 17.6-.1 26.4-.1zM180.8 249.1c-16.7 5.1-32.8 9.9-47.4 18.5-4.2 2.5-8.1 5.3-11.4 8.8-7.6 7.9-9 16.1-4.3 26 2.8 6 6.9 11 12.2 14.9 13.6 9.9 29.3 14.6 45.5 17.8 2.8.5 3-.7 2.8-2.9-.4-5.1-.8-10.3-1-15.4-.8-22.5.1-44.9 3.6-67.7zM918 506.9c6.3-.6 16.8-1.6 27.2-2.5 1.8-.2 3.1-.4 2.8-2.9-2.2-15.8-4.3-31.5-6.5-47.3-.5-3.3.5-7.5-1.8-9.5-2.7-2.3-6.7.2-10.1.5-9.2.8-18.4 2.2-27.7 3.3-2.4.3-3.5.8-3.1 3.9 2.3 15.4 4.3 30.9 6.2 46.3 1 8.5.7 8.6 13 8.2zm327 512c-11.5 0-23 .1-34.5-.1-2.6 0-3.9.3-3.8 3.4.2 7 .2 14 0 21 0 2.4.7 3.1 3.1 3.1 23.3-.1 46.6-.1 69.9 0 2.2 0 3.3-.4 3.2-3-.2-7.2-.2-14.3 0-21.5.1-3-1.3-3.1-3.6-3.1-11.3.2-22.8.2-34.3.2zM999.7 593.8c5.7 0 11.3.3 17-.1 12.9-.7 25.9-1 38.5-4.9 3.3-1 6.1-2.8 4.7-6.8-1.2-3.5-4.4-4.1-7.5-3-11.3 4.1-23.1 4.4-34.9 4.8-34.7 1.1-69.2-.5-103.8-3.2-13.7-1.1-27.6-1.6-41.1-4.9-3.8-1-6.8-.7-7.8 3.5-1 4.3 2.3 5.1 5.6 5.8 15.3 3.2 30.9 4.4 46.5 5.6 27.6 2.4 55.1 3.9 82.8 3.2zm-106.4-67.6c40.9-2 81.6-5.6 121.9-13.3 11.1-2.1 22.1-4.5 32.4-9.6 3.1-1.5 4.9-3.9 3.2-7.2-1.5-2.9-4.4-3.4-7.3-1.9-16 8.2-33.6 10.1-51 12.8-27.8 4.4-55.8 6.9-83.8 8.7-13.9.9-27.8 2.5-41.8.8-3.1-.4-5.6 1.2-5.8 4.8-.2 3.3 1.7 4.6 4.9 4.9 9 .6 18.1.2 27.3 0zm57 48.8c-.3 0 .3-.1 1 0 4.2.8 5.4-.7 4.8-4.9-1.6-12.3-2.8-24.7-4.3-37.1-.2-1.4-.2-3.1-2.6-2.8-12.2 1.5-24.5 2.5-36.8 3-1.9.1-3.1.5-2.7 3 1.4 11.2 2.7 22.4 3.9 33.6.2 2.1.7 3.2 3.2 3.3 10.9.5 21.7 1.2 33.5 1.9zm187.3 652.1c-8.5-.1-8.5-.1-6 7.1 6.2 18 26 27.2 43.8 20.4 14-5.4 22.9-19.5 21.6-34.3-1.3-14.3-12-26.7-25.8-29.6-1.3-.3-3.4-1.7-3.7.6-.5 3.6-.4 7.3-.1 11 .2 2.4 3 2.2 4.7 3.1 8.1 4.4 12.4 12.7 10.8 21.7-1.3 7.3-8.5 14.5-15.8 15.6-9 1.5-17.6-2.4-21.2-10.6-2-4.5-4.7-5.8-8.3-5zm-173.1 0c-8.3-.1-8.3-.1-5.8 7.2 7.2 21.6 34 29.6 52.4 15.4 10.6-8.2 14.9-19.6 12.2-32.8-2.8-14-11.7-22.8-25.5-26.5-1.3-.3-3.1-1-3.3.8-.4 3.6-.4 7.3-.1 11 .2 2.5 3 2.3 4.6 3.2 8.2 4.2 12.4 12.3 11 21.5-1.1 7.3-8.2 14.5-15.5 15.9-8.8 1.6-18-2.2-21.3-10.2-2.1-4.9-4.8-6.3-8.7-5.5zm378.7 0c-7.6-.1-7.6-.1-5.6 6.2 6.4 20.5 29.6 29.6 48.5 19.1 12.2-6.8 18.8-20.4 16.7-34.6-1.9-12.8-12.6-24.3-25.4-27.2-1.1-.2-2.7-1.2-3.1.2-1.1 3.5-.4 7.2-.4 10.9-.1 2.7 2.4 2.8 4.1 3.7 8.4 4.2 12.3 11.9 11 21.4-1 7.3-7.4 14.2-14.8 15.8-8.5 1.9-17.6-1.6-21.6-9.6-2.4-4.7-5-7.1-9.4-5.9zm174.3 0c-8.4-.1-8.5-.1-5.8 7.2 6.1 16.7 22.9 25.8 39.9 21.6 14.9-3.7 25.3-17.1 25.3-32.5 0-15.5-10.2-28.9-25.1-32.6-1.4-.4-3.6-1.8-3.9.9-.4 3.6-.4 7.4.1 10.9.4 2.3 3.4 2.3 5.2 3.4 7.5 4.5 11.1 12.5 9.6 21.3-1.3 7.3-8.5 14.4-15.9 15.5-8.9 1.3-17.5-2.4-20.9-10.3-1.9-4.8-4.6-6.2-8.5-5.4zM1245 980.8c-8 0-16 .1-23.9-.1-2.4 0-3.1.7-3.1 3.1.1 7.8.2 15.6 0 23.4-.1 2.8 1 3.3 3.5 3.3 15.6-.1 31.3-.1 46.9 0 2.8 0 3.8-.8 3.7-3.6-.2-7.5-.3-15 0-22.4.1-3.4-1.3-3.8-4.1-3.7-7.7.1-15.4 0-23 0zM861.6 559.2c-4.7-1.9-6.5 1.4-8.1 4.5-1.7 3.2-3.2 6.6-4.5 10-3.9 10.5-4.7 21.5-4.4 32.5.5 20.9-2.4 41.1-11 60.3-1.2 2.7-1.9 5.7-2.6 8.5-.8 3.2.2 5.8 3.5 6.6 3.2.7 4.9-1.1 5.9-4 2.5-7.2 5.1-14.4 7.6-21.6 3.9-11.2 6-22.8 6.2-34.7.1-9.5.3-19 .9-28.5.7-10.1 1.6-20.2 9.5-27.9 1.3-1.3 2.7-2.8 1.8-4.8-1.1-2.4-3.3-.3-4.8-.9zm382.9 510.1h35c9.1 0 8.8 0 9.3-9.1.2-4.7-1.6-5.4-5.6-5.4-24 .1-48 .1-72 .1-10.4 0-10.2 0-10.3 10.4 0 3.3.9 4.1 4.1 4.1 13.2-.2 26.4-.1 39.5-.1zm-103.2 114.6c-5 0-10 .1-15 0-2.1 0-3.4.1-3.3 2.9.2 6.5-.1 13 .1 19.5.3 8 5.4 12.7 13.5 12.7 6.2.1 12.3-.1 18.5.1 3 .1 4-.5 3.9-3.8-.2-8.8-.3-17.7 0-26.5.2-4.4-1.3-5.3-5.3-5-4 .4-8.2.1-12.4.1zm-173 0h-15c-1.8 0-3.3-.1-3.2 2.5.1 6.8-.3 13.7.2 20.5.5 7.6 5.5 12 13.1 12.1 6.5.1 13-.1 19.5.1 2.7.1 3.3-.8 3.3-3.4-.2-9.5-.2-19-.1-28.5 0-2.5-.6-3.5-3.3-3.4-4.8.3-9.7.1-14.5.1zm552.7 0h-15c-1.6 0-2.9.1-2.9 2.3.1 7-.3 14 .3 20.9.6 7.8 5.5 11.7 13.3 11.8 6.5.1 13 0 19.5 0 2 0 3-.3 3-2.7-.1-9.8-.2-19.6-.1-29.4 0-2.3-.6-3.2-3.1-3.1-5 .4-10 .2-15 .2zm-173.4 0h-15c-1.8 0-3.3-.1-3.2 2.5.3 7.5-.5 15 .5 22.4.8 5.8 5.3 9.9 11.1 10.1 7.1.2 14.3.1 21.4.1 1.6 0 2.9.1 2.9-2.2-.1-10.1-.2-20.2-.2-30.4 0-2.5-1.2-2.6-3.1-2.5-4.8.1-9.6 0-14.4 0zM1099.2 962c-8.9-11-14.1-22.7-15.2-36.1-.3-3.5-3.2-2-4.6-1.8-3.2.5-7.1-2.2-9.7 1.7-.1.1 0 .3 0 .5v33c0 1.7.4 2.8 2.5 2.7 8.7-.1 17.5 0 27 0zM859.1 532.5c-3-.9-3.9-4.1-7.2-4.6-9.4-1.3-18.6-.8-27.7 1.5-3.4.8-6.1 2.6-5.1 6.5 1 3.6 3.9 4 7.2 3.2 5.5-1.4 11.2-2.7 16.7-1.8 6.1.9 11.1-.3 16.1-4.8zm5.8 13.6c-1.1-1.3 2-5.2-2.2-5.2-3.1 0-5.8 1.9-5.7 5.6 0 3.2 2.1 4.6 5.2 4.6 3.2-.1 3.3-2.2 2.7-5z"/>
  <path fill="#EBB724" d="M1413.8 822.8c3.4-9.5 7-18.6 10-27.9 6.2-19.2 10.8-38.8 13.2-58.8.4-3 1.2-3.8 4.4-2.8 15.8 4.6 31.2-3 36.9-18.1 5.5-14.7-1-30.6-15.7-37.7-39.7-19-81.4-30.9-125.3-34.6-53.6-4.5-107.2-3.5-160.8-1.5-34.7 1.3-68.7 7.6-101.7 18.9-1.9.7-3.8 1.9-3.8-1.9 0-18.7-4.3-36.6-9.3-54.4-1.3-4.6-1.9-8 2.9-11.8 6.7-5.3 4.6-15.9-3.4-20-2.8-1.4-3.5-3-3.4-5.7.3-7 .8-14 .7-21-.2-10.4-2.7-20.4-6.7-30-1.2-3-1.5-4.9 1.8-6.8 4.6-2.7 6.3-7.2 5.5-12.5-.8-5.3-3.9-8.9-9-10.3-2.7-.7-3.2-2.1-3.4-4.5-1.9-23.2-3.8-46.5-5.8-69.7-1.8-21.5-6.6-42.4-13.1-62.9-7.4-23.3-29.1-34.7-53-29.1-11.6 2.7-22.6 7-32.1 14.4-10 7.8-14.2 17.7-12.4 30.6 3.2 22.6 5.5 45.3 8.3 67.9.2 2 0 3-2.4 3.3-11.2 1.2-22.5 2.6-33.7 4.1-2.9.4-3.6-.5-3.9-3.3-4.2-44.1-8.6-88.2-13-132.2-4.2-42.2-8.5-84.5-12.7-126.7-2.5-25.4-4.9-50.7-7.3-76.1-.8-8.5-1.3-8.8-9.8-7.9-9.8 1-19.5 2.1-29.3 2.8-5 .4-6.1 2.9-5.5 7.3.8 5.4 1 11 1.8 16.4.5 3.3-.8 4.6-3.7 5.5-16.8 5.4-34.1 7.8-51.6 8-52 .4-103.2 7.5-153.9 18.5-34.2 7.4-68.7 12.5-103.7 14.9-39.8 2.7-78.5 11.9-117 22.1-27.3 7.3-54.3 15.6-82.1 21.1-23.7 4.7-47.7 7.2-71.2 12.5-33.6 7.6-66 19.2-98.2 31.3-9.2 3.5-17.6 8.6-24.8 15.6-10.9 10.8-13 23.1-6.1 36.9 4.6 9.2 11.8 16 20.6 21.1 17.1 10 36 14.4 55.4 17 23.1 3.1 46.5 3.2 69.6 6.9 20 3.2 39.8 7.9 59.7 11.8 22.3 4.3 44.9 5.9 67.5 7.1 16.8.9 33.6 1.8 50.4 1.7 48.6-.2 96.8 4.8 145.1 8.2 37.8 2.7 75.6 4 113.3.1 25.7-2.6 51.3-5.8 77-8.3 24.9-2.4 49.9-3.1 74.8 0 3 .4 4.1 1.4 4.3 4.5 2.4 25.7 5 51.4 7.6 77 1.5 15.4 3 30.8 4.6 46.2.5 4.6 1.7 9.3-4 11.8-.9.4-1.9 1.7-2.1 2.7-.9 5.1-4 5-8.2 4.5-8.7-1-17.3.3-25.7 2.7-7.3 2.1-11.2 9-9.4 15.9 1.7 6.7 8.2 10.6 15.5 9.2 5.7-1.1 11.4-2.4 17.3-2 4.4.3 7.9 6.3 5.4 9.8-11.3 16-13.3 34.2-13 52.9.3 19.1-2.4 37.4-10.2 55-1.8 3.9-3.1 8.1-3.6 12.4-.8 6.8 3.2 12.5 9.9 14.2 6 1.5 12.7-1.4 14.7-7.4 4.4-13.6 10.5-26.6 13.1-40.8 2.1-11.2 1.7-22.6 2.1-33.9.1-3.7.1-7.3.5-11 .2-1.5-1.2-4.3 1.7-4.2 2.6.1 5.1.4 5.5 4.6 3.5 37.6 7.3 75.2 11 112.9.7 7.5 1.2 7.9 8.5 7.3 8.1-.7 16.3-1.2 24.4-2.4 3.8-.5 4.6.8 4.7 4.1 1 16.6 2.1 33.2 3.2 49.9 1.8 26.4 2.5 52.9 11.7 78.2 21.7 58.9 62.5 97.8 122.1 117 2.6.9 5.3 1.1 6.4 4.5.7 2.2 3.3 1.7 5.3 1.7h37c2.4 0 4.5.4 6.6 1.7 9.2 6 19.3 8.5 30.3 8.4 21.2-.2 42.3 0 63.5-.1 3.8 0 5.3.8 5.1 4.9-.4 7.3-.2 14.7 0 22 .1 2.9-.9 3.7-3.7 3.7-7.6.1-7.7.4-7.8 8v23.5c0 1.3.5 3.4-.7 3.7-7.1 1.9-4.3 7.6-4.8 11.9-.2 1.8-.2 3.7 0 5.5.3 3.8.3 6.8-5.1 6.5-3-.2-3.2 2.8-3.2 5.2v30.5c0 12.6-6.8 20.4-19.4 21.3-30.4 2.2-60.8 4.1-91.2 6.1-29.4 2-58.9 3.7-88.2 6.1-13.1 1.1-24.7 6.5-33.8 16.5-1.6 1.8-3.2 2.7-5.6 2.4-.8-.1-1.7 0-2.5 0-309.8 0-619.6 0-929.4.1-5 0-6.6-.9-6.6-6.3.4-378.6.4-757.7.3-1136.8C8 9.2 9.2 8 14.4 8c673.1.1 1346.2.1 2019.3 0 5.4 0 6.3 1.6 6.3 6.6-.1 378.9-.1 757.9-.1 1136.8 0 6.6 0 6.6-6.6 6.6-162.7 0-325.3 0-488 .1-3.7 0-6.3-.9-9-3.7-8.9-9.3-20.2-14.3-32.8-15.2-35.2-2.7-70.5-4.8-105.7-7.2-24.4-1.6-48.9-3.2-73.3-5-12.6-.9-19.6-8.6-19.6-21.1 0-10.2-.1-20.3 0-30.5 0-3.6-1.1-5.9-5.1-5.7-2.8.1-3.3-1.2-3.2-3.6.1-4.7 0-9.3 0-14 0-1.9-.2-4.3-2.1-4.6-4.1-.7-3.6-3.4-3.6-6.3 0-8.2-.1-16.3.1-24.5.1-4.3-1.6-6.5-5.9-5.8-4.6.7-5.6-1.3-5.4-5.5.4-6.8.3-13.7 0-20.5-.2-3.9 1.2-4.6 4.8-4.6 20.8.2 41.7-.4 62.5.2 31.3.9 54.8-24.1 57.8-52.4.3-3.3 1.4-4.1 4.6-4 9.2.2 18.3-.1 27.5.1 14.9.4 26.2-5.9 34.1-18.1 12.1-18.7 13.5-38.9 5.4-59.2-7.1-17.9-22.3-24.5-40.6-25.6-7.3-.7-14.5.7-22 1.5zm-43.7-535.4h189.4c3 0 6.6.5 6.6-3.9 0-4.3-3.5-4.1-6.5-4.1h-377.3c-3.3 0-8.1-1.1-8.1 4 0 5.3 4.8 4 8 4h187.9zm-173.5-87.5h-137.4c-2.2.1-3.4 1.3-3.7 3.3-.3 2.3.9 3.9 3.1 4.4 1.4.4 3 .3 4.5.3h266.7c1.3 0 2.7.1 4-.1 2.2-.4 3.6-1.8 3.5-4.2-.1-2.3-1.4-3.7-3.8-3.7h-136.9zM1054 287.4h58.4c2.5 0 4.3-1.3 4.4-3.8.1-2.5-1.6-3.9-4-4.2-1.3-.2-2.7-.1-4-.1H999.5c-1.5 0-3-.1-4.5.2-2.8.6-3.9 2.5-3.1 5.2.8 3 3.4 2.7 5.7 2.7h56.4z"/>
  <path fill="#007CB1" d="M1384.8 1183.9h5.1c33.3 0 66.7.1 100-.1 4 0 5.6.8 5.3 5.1-.4 5.5-.1 11-.1 16.5 0 3.4 0 7.2 2.1 9.6 4.3 5.1 4.3 11.2 5.6 17.1 4.5 20.6 21.7 33.5 43.4 32.8 18.6-.6 35.4-16 38.6-35.3 3.4-21.3-10.6-42.2-31.9-46.9-4.2-.9-5.8-2.5-5.9-6.7-.1-3.2-1.1-6.5-1.8-10.1h5.6c161 0 322 0 482.9-.1 4.9 0 6.4 1 6.3 6.2-.2 59.3-.1 118.6-.1 178 0 6.9 0 6.9-6.8 6.9H59.3c-15.7 0-31.3-.1-47 .1-3.1 0-4.3-.7-4.3-4.1.1-61 .1-122 0-183 0-3 .7-4.4 3.9-3.9 1.1.2 2.3 0 3.5 0h922.4c1.5 0 3 .1 4.5 0 2.1-.1 2.5.5 1.8 2.6-4 13.1-1.5 26.5-1.9 39.7-.1 2.1.5 4.6 1.7 6.2 4.2 5.5 4.6 12 6.1 18.4 4 18.1 20.4 31.6 38 32 20.4.5 37-11.3 42.6-30.2 5.2-17.6-2.3-37-18.2-46.9-1.8-1.1-3.7-2.1-5.7-3.3 1.1-1.1 2.3-.6 3.3-.6 33.3 0 66.7 0 100-.1 3.8 0 5.3.7 5.1 4.9-.4 5.8-.1 11.7-.1 17.5 0 4.6 1.2 9 4.2 12.5 2 2.3 2.5 4.8 2.7 7.7 1 19.9 17.8 37 37.5 38.4 21.4 1.5 40.3-12.1 44.6-32.1 4.2-19.5-4.3-37.6-22-46.9-.7-.4-1.4-.8-2-2h3.6c44.2 0 88.3.1 132.5-.1 4.1 0 5.4 1 5.3 5.2-.2 7-.7 14 .4 20.9.3 1.6.4 3.6 1.3 4.7 4.3 5.1 4.6 11.3 5.8 17.5 3.7 18.2 20.1 32.2 38 32.7 20.4.6 37.5-11.4 42.8-29.9 5.3-18.6-2.6-38.1-19.2-47.8-1.5-.7-3-1.5-5.7-3.1z"/>
  <path fill="#D5E2E9" d="M1247.5 648.2c20.8-.5 41.6.1 62.4.8 52.3 1.9 102.3 13 149.5 36 11.2 5.5 15.6 18 10.5 29-5 10.6-17.5 15.2-28.7 10.5-1.7-.7-3.2-1.9-4.9-2.3-3.3-.9-5.9-.2-6.4 3.9-5.1 50.8-22.2 97.5-48.2 141.1-16.2 27.2-35.3 52.3-56.3 75.9-7.4 8.4-17.5 10.8-27.8 12.8-3 .6-2.7-1.4-2.7-3.3 0-11.5-.1-23 .1-34.5.1-4.7-1.6-6.6-6.4-6.6-29.2.1-58.3.1-87.5 0-4.8 0-6.4 1.8-6.3 6.5.3 11.2-.1 22.3.2 33.5.1 3.5-1.2 3.8-4 3.1-10.8-2.5-18.9-8.6-26.1-17.1-26.8-31.6-50.7-65.2-68.6-102.7-15.3-32.2-25.3-65.9-30.2-101.2-.3-1.8-.2-3.7-.4-5.5-.8-6.7-2.9-7.9-8.8-4.9-4.5 2.3-9.2 3.7-14.3 3-9.9-1.5-17.2-8.2-18.6-17.3-1.6-10.5 2.7-19.3 12.1-23.8 22.1-10.6 45-19.1 68.7-25.1 37.5-9.4 75.8-11.5 114.2-11.8h28.5zm-153 68.9c.5 1.5 1.1 3 1.4 4.6 6.7 29.1 17.8 56.4 32.5 82.2 18.4 32.2 41.4 60.8 68.1 86.4 6.1 5.9 13.4 9.8 21.9 10.7 18.1 1.9 36.3 1 54.4.6 9-.2 17.2-3.6 24.3-10 4.8-4.3 9-9.1 13.5-13.7 15-15.1 28.2-31.6 40.3-49 12.5-17.9 23.1-36.9 31.5-57 6.9-16.4 13.1-33 16.5-50.6.6-3.2 2.1-4.7 5.4-3.1 1.9.9 3.8 2 5.8 2.5 2.3.5 5.4 1.6 6.5-1.5 1-2.9-.2-5-3.6-6.3-20.3-7.6-41-12.8-62.5-16-20.4-3-40.9-4.7-61.4-4.7-35.6-.1-71.2-1.1-106.7.8-9.5.5-19.1 1-28.5 2.2-12.9 1.7-25.7 4-38.4 6.9-11.2 2.6-22 6.5-32.9 10.1-2.1.7-3.7 2.5-3.1 5.2.6 2.9 2.9 3.1 5.1 2.6 3.4-.8 6.6-1.9 9.9-2.9z"/>
  <path fill="#D6E2E9" d="M698.9 146.2c.6 11.9 1.3 23.7 1.9 35.5 1.5 35.8 3.7 71.5 7.4 107.1 2.7 26 6.3 51.8 12.3 77.3.7 3.1 0 3.6-2.8 3.9-30.3 3.8-60.6 6-91.2 5-14.5-.5-28.9-1.4-43.4-2-3.2-.1-3.6-1.8-4-4.3-4.6-27.1-6.6-54.5-7.8-82-1.6-37.8-1.6-75.6-.5-113.4.1-3.2 1-4.5 4.3-5.1 25.1-4.7 50.2-9.8 75.4-14.6 15.8-3 31.9-5.5 48.4-7.4z"/>
  <path fill="#C23131" d="M846.8 362c.5 2.2-.4 2.8-2.7 2.5-36-4.3-71.8-.9-107.6 3.2-8.8 1-7.2 1.1-8.8-5.9-5.8-25.3-9.1-51.1-11.8-76.9-4.7-44.4-6.2-89-8.8-133.5-.3-4.9.9-6.3 6-6.7 17.8-1.4 35.6-1.9 53.4-2.6 18.2-.7 36.2-2.3 53.6-8.1 4-1.3 4.5.4 4.8 3.4 2.4 25.2 4.8 50.4 7.3 75.5 2.8 28.6 5.8 57.3 8.7 85.9 1.9 21.1 3.9 42.2 5.9 63.2z"/>
  <path fill="#D4E1E8" d="M1539 1175.8h-35.2c-47.1-.1-94.3-.2-141.4-.3-55.1-.1-110.3-.3-165.4-.3-22.6 0-45.3.4-67.9.5-5.7 0-5.8-.1-3.6-5.4 4.3-10.3 12.9-15.7 22.7-19.5 12.3-4.7 25.5-5.6 38.3-8 13-2.4 26.2-4.1 39.1-7.2 10.9-2.6 18.3-9.7 20.2-21.5.5-2.9-.5-5.2-3.3-5.9-3-.7-4.4 1.5-5 4.2-2.3 10-7.8 14.6-18.5 16.4-21.1 3.5-42.1 7.1-63.1 11.1-10.5 2-20.2 6.3-28.3 13.6-5.6 5-9.7 11.1-11.1 18.4-.6 3.3-2 3.6-4.6 3.5-5-.1-10 0-15 0l-141 .3c-5.3 0-5.7-.3-3.6-5.1 5.6-13.1 16.4-19.7 29.6-22.6 11.4-2.5 23.2-2.2 34.7-3.1 18.4-1.4 36.9-2.6 55.3-3.8 17.3-1.1 34.6-2 51.8-3.4 15.9-1.3 32-.7 47.7-4 14.6-3.1 21.7-12.9 21.8-27.9 0-8 .1-16 0-24-.1-2.9.2-4.2 3.9-4.2 32.3.2 64.6.1 97 0 2.8 0 3.3.8 3.3 3.3-.1 8.5-.1 17-.1 25.5 0 14.7 7 23.8 21.6 27.3 10.1 2.5 20.5 2 30.7 2.8 24.1 1.9 48.1 3.3 72.2 4.9 22.6 1.5 45.2 2.8 67.8 4.2 12.8.8 25.5 1.6 36.4 9.8 6.4 5.4 11.2 11.6 13 20.4z"/>
  <path fill="#C23131" d="M562.4 223.6c-.8 32.8.2 65.6 2.8 98.3 1.2 15.4 2.8 30.8 5.5 46 .6 3.6-.4 4.2-3.8 3.9-41.1-3.7-82.3-6.9-123.6-7.4-5-.1-6.1-1.7-6.7-6.5-4.3-35.4-5.6-71-4.6-106.7.6-20.5 2.2-40.9 4.8-61.2.3-2.4 1.1-3.5 3.5-4 24.2-5.3 48.7-9.2 73.4-11 14.8-1.1 29.5-2.3 44.2-4.2 3.8-.5 4.5.8 4.5 4.2v48.6z"/>
  <path fill="#D5E2E9" d="M302.7 308.3c.3-28.8 2.8-57.5 7.3-86 .4-2.3 1-3.6 3.4-4 35.2-7.1 69.4-18.2 104.2-26.7.2 0 .3-.1.5-.2 11.3-2.9 11.1-2.9 9.7 8.9-4.1 35.6-4.7 71.4-3.2 107.2.7 17.3 2.2 34.6 4.4 51.7.4 3.1.5 5-4 4.9-31.6-1.1-63.3-1.3-94.6-6.1-7.7-1.2-15.4-2.8-23.1-4.1-2.6-.4-3.6-1.6-3.7-4.2-.8-13.8-1-27.6-.9-41.4zM1061.1 956.7c-23.6-6.6-44.4-17.3-62.9-32.2-34.8-28.2-56.1-64.5-64-108.5-2.9-16.5-3-33.4-4.2-50.2-1.3-17.8-2.5-35.5-3.7-53.3-1.1-15.3-2.1-30.5-3.3-45.8-1.4-16.9-3.1-33.8-4.6-50.6-.4-4.5-.8-8.9-1.3-13.4-.3-2.6.2-4 3.3-3.6 11.4 1.3 22.9 2 34.4 2.1 4.1 0 5 1.9 5.3 5.4 2.4 29.3 5.4 58.6 7.3 88 2 31.7 4.9 63.3 6.6 95.1 1.4 26.6 8.7 51.1 23.9 73.1 2.1 3 4 6.2 6.5 8.8 9.4 9.6 17.1 20 23 32.4 5.9 12.4 17.1 19.7 31.5 20.2 2.2.1 2.3 1.1 2.3 2.8-.1 9.5-.1 19.4-.1 29.7z"/>
  <path fill="#007C38" d="M938 358.4c.1-5.1 1.7-9.3 4.8-12.7 12-12.7 27.3-18.5 44.2-19.2 15.1-.6 28 9.2 32.8 24 5.7 17.2 10 34.9 12 52.9 2.8 26.3 4.7 52.6 7.1 78.9.3 3.7-.7 5.8-4.4 7.1-14 5.2-28.7 7.1-43.2 9.5-9.7 1.6-19.4 2.5-29.1 4-4.2.6-6.2-.2-6.8-5-2.2-19.5-4.9-38.9-7.4-58.3-1.8-13.8-3.7-27.6-5.4-41.5-1.7-13.4-3.1-26.7-4.6-39.7z"/>
  <path fill="#C23131" d="M185 303c-.3-18.2 1.4-35.1 3.6-52 .5-3.5 2-4.9 5.2-6.1 29.8-11.6 61.1-16.9 92.6-21.8 3.8-.6 7.6-1.2 11.3-1.9 3.1-.6 4.3-.2 3.7 3.7-5 32.5-7.3 65.2-6.9 98 .1 8.2.4 16.3.8 24.5.2 3.3-.8 4-3.9 3.2-28.6-6.7-57.7-10-86.9-11.6-4.5-.3-8.9-1.4-13.4-1.5-3.8-.1-4.7-1.8-4.9-5.2-.7-10.2-1.5-20.3-1.2-29.3z"/>
  <path fill="#007C38" d="M995.8 602c18.5.3 35.9-.3 53.2-3.2 2.4-.4 3.4.2 3.8 2.4 2.5 13.2 7.5 25.9 8.8 39.4.6 6.8 1.5 13.5 1.5 20.4 0 2.8-.9 4.1-3.5 5.1-9.1 3.7-18.1 7.5-27 11.7-12.4 5.8-19.2 18.6-16.9 30.9 2.7 14.8 13 24.7 27.4 26.2 2.5.3 5-.1 7.4-.6 2.4-.5 3.7-.3 3 3-3.9 16.5-21.9 29.5-38.9 28.2-13-1-23.7-6-31.3-16.9-3.4-4.9-4.9-10.4-5.2-16.4-1.3-22.4-3-44.8-4.8-67.1-1.6-19.2-3-38.4-5.2-57.6-.5-4.4.8-5.8 5.4-5.6 7.6.4 15.5.1 22.3.1zM1358.9 915.5c9.1-12 17.1-23.6 24.6-35.6 8.5-13.5 16.5-27.4 23-42 2-4.6 4.5-6.9 9.8-7.3 8.3-.6 16.4-2.5 24.8-.9 18.4 3.4 27.9 12.4 30.9 30.9 2.9 18-.2 34.5-13.9 47.7-5 4.8-11.1 7.4-18 7.5-26.1.1-52.3.1-78.4 0-.6.1-1.2-.1-2.8-.3zM1136.3 915.9h-29.4c-14.1 0-28.3-.4-42.4.1-16.1.6-26.6-7.1-33-21.1-6.9-15.1-6.9-30.7-1.4-46.1 4.9-13.5 15.9-19.1 29.3-20.5 7.4-.8 14.9-.8 22.4.5 2.1.4 3.2 1.1 4.1 3 12.9 28.8 29.4 55.5 48.3 80.7.6.7 1 1.6 2.1 3.4z"/>
  <path fill="#D5E2E9" d="M1244.7 972c-34.5 0-69-.4-103.4.1-23.6.4-43.9-17.6-48.2-41.3-1.3-6.9-1.1-6.9 6-6.9 13.3 0 26.6.1 40-.1 3 0 4.9.9 6.7 3.2 5.2 6.5 10.8 12.6 16 19.1 8.7 11 21 14.5 33.9 17.9 28.1 7.6 56.5 1.7 84.7 3.7 12.8-3.8 26.4-3.7 38.7-9.6 8.3-4 13.8-10.7 19.6-17.4 3.7-4.3 7.6-8.5 10.8-13.1 2.2-3.2 4.7-4 8.3-3.9 11.8.2 23.6.2 35.5 0 3.2-.1 4.5.7 3.9 4.1-4.2 27.2-25.8 44.5-48.9 44.2-34.7-.4-69.2 0-103.6 0z"/>
  <path fill="#E9B624" d="M1017.8 874.3c-15.8-16.6-26.1-35.3-31.8-56.6-3.7-14-3.9-28.3-5-42.5-.4-5.4-.7-10.9-1.1-17.3 12.5 12.3 26.7 17.6 43.3 15 16.7-2.5 28.6-11.9 36.4-28.2 4.5 26.3 11.4 50.8 21.3 75.2h-5.8c-8.2-.2-16.3-.3-24.3 1.7-18.4 4.7-29.7 18.2-31.7 38.3-.6 4.5-.8 9-1.3 14.4z"/>
  <path fill="#007C38" d="M995.9 575.9c-8.8 0-17.7-.2-26.5.1-3.5.1-4.7-1.3-5.1-4.5-1.4-12.7-2.9-25.4-4.4-38.1-.4-3.1.5-4.2 3.9-4.7 23.1-2.9 46.2-5.7 68.7-11.7 10.3-2.7 10.1-2.6 13.9 7.5 4.1 10.8 3.9 21.8 3.5 33-.1 2-.1 4-.2 6-.1 9.1-.1 9-9.6 10.5-14.6 2.3-29.4 2.1-44.2 1.9z"/>
  <path fill="#D4E1E8" d="M180.8 249.1c-3.5 22.8-4.4 45.2-3.7 67.6.2 5.1.6 10.3 1 15.4.2 2.2-.1 3.4-2.8 2.9-16.2-3.2-31.9-7.9-45.5-17.8-5.3-3.9-9.4-8.9-12.2-14.9-4.7-9.9-3.3-18.1 4.3-26 3.4-3.5 7.3-6.3 11.4-8.8 14.7-8.5 30.8-13.3 47.5-18.4zM918 506.9c-12.3.4-12 .3-13.1-8.2-1.8-15.5-3.9-30.9-6.2-46.3-.5-3.1.7-3.6 3.1-3.9 9.2-1.1 18.4-2.5 27.7-3.3 3.4-.3 7.4-2.8 10.1-.5 2.3 2 1.3 6.3 1.8 9.5 2.2 15.8 4.3 31.5 6.5 47.3.4 2.5-.9 2.7-2.8 2.9-10.3.9-20.8 1.9-27.1 2.5z"/>
  <path fill="#D6E2E9" d="M1245 1018.9h34.5c2.3 0 3.7.1 3.6 3.1-.2 7.2-.2 14.3 0 21.5.1 2.6-1 3-3.2 3-23.3-.1-46.6-.1-69.9 0-2.4 0-3.1-.7-3.1-3.1.1-7 .2-14 0-21-.1-3.1 1.2-3.5 3.8-3.4 11.3-.1 22.8-.1 34.3-.1z"/>
  <path fill="#E1CD8D" d="M999.7 593.8c-27.7.6-55.2-.9-82.8-3-15.6-1.2-31.2-2.5-46.5-5.6-3.3-.7-6.6-1.5-5.6-5.8 1-4.2 4-4.4 7.8-3.5 13.5 3.4 27.3 3.9 41.1 4.9 34.5 2.7 69.1 4.3 103.8 3.2 11.8-.4 23.6-.7 34.9-4.8 3.1-1.1 6.3-.5 7.5 3 1.4 4-1.4 5.8-4.7 6.8-12.5 3.8-25.6 4.1-38.5 4.9-5.7.2-11.3-.1-17-.1zM893.3 526.2c-9.2.2-18.3.6-27.5-.1-3.2-.2-5.1-1.5-4.9-4.9.2-3.5 2.6-5.2 5.8-4.8 14 1.7 27.9.1 41.8-.8 28-1.8 56-4.4 83.8-8.7 17.3-2.7 35-4.5 51-12.8 2.9-1.5 5.8-1 7.3 1.9 1.8 3.3-.1 5.7-3.2 7.2-10.2 5.1-21.3 7.5-32.4 9.6-40.1 7.8-80.9 11.4-121.7 13.4z"/>
  <path fill="#D4E1E8" d="M950.3 575c-11.8-.7-22.6-1.5-33.4-2-2.5-.1-3-1.2-3.2-3.3-1.2-11.2-2.5-22.4-3.9-33.6-.3-2.5.9-2.9 2.7-3 12.3-.5 24.6-1.5 36.8-3 2.3-.3 2.4 1.4 2.6 2.8 1.4 12.4 2.7 24.8 4.3 37.1.5 4.2-.6 5.7-4.8 4.9-.8 0-1.4.1-1.1.1z"/>
  <path fill="#007A37" d="M1137.6 1227.1c3.7-.8 6.3.5 8.3 5.1 3.5 8.2 12.1 12 21.2 10.6 7.3-1.2 14.5-8.3 15.8-15.6 1.6-9-2.6-17.4-10.8-21.7-1.7-.9-4.5-.7-4.7-3.1-.4-3.6-.4-7.4.1-11 .3-2.3 2.4-.9 3.7-.6 13.8 2.9 24.5 15.3 25.8 29.6 1.3 14.8-7.6 28.9-21.6 34.3-17.8 6.8-37.5-2.4-43.8-20.4-2.5-7.3-2.5-7.3 6-7.2zM964.5 1227.1c3.9-.9 6.6.5 8.6 5.4 3.4 8 12.5 11.8 21.3 10.2 7.3-1.3 14.4-8.5 15.5-15.9 1.4-9.2-2.8-17.3-11-21.5-1.7-.9-4.4-.7-4.6-3.2-.3-3.6-.3-7.3.1-11 .2-1.8 2.1-1.1 3.3-.8 13.8 3.7 22.7 12.5 25.5 26.5 2.6 13.2-1.6 24.6-12.2 32.8-18.4 14.3-45.2 6.2-52.4-15.4-2.4-7.2-2.4-7.2 5.9-7.1zM1343.2 1227.1c4.5-1.3 7 1.1 9.4 5.9 4 8 13.1 11.6 21.6 9.6 7.4-1.7 13.8-8.5 14.8-15.8 1.3-9.6-2.7-17.3-11-21.4-1.7-.8-4.2-.9-4.1-3.7.1-3.6-.7-7.4.4-10.9.4-1.4 2-.4 3.1-.2 12.8 2.9 23.5 14.4 25.4 27.2 2.1 14.2-4.5 27.8-16.7 34.6-18.9 10.5-42.1 1.4-48.5-19.1-2-6.3-2-6.3 5.6-6.2zM1517.5 1227.1c3.9-.9 6.6.6 8.6 5.4 3.4 7.9 12 11.6 20.9 10.3 7.3-1.1 14.5-8.1 15.9-15.5 1.6-8.8-2.1-16.9-9.6-21.3-1.8-1.1-4.9-1.1-5.2-3.4-.6-3.6-.5-7.3-.1-10.9.3-2.8 2.5-1.3 3.9-.9 14.9 3.7 25.1 17 25.1 32.6 0 15.4-10.4 28.7-25.3 32.5-17 4.2-33.8-4.8-39.9-21.6-2.7-7.2-2.7-7.3 5.7-7.2z"/>
  <path fill="#D4E1E8" d="M1245 980.8c7.6 0 15.3.1 22.9-.1 2.8-.1 4.2.3 4.1 3.7-.3 7.5-.2 15 0 22.4.1 2.9-.9 3.7-3.7 3.6-15.6-.1-31.3-.1-46.9 0-2.5 0-3.5-.5-3.5-3.3.2-7.8.1-15.6 0-23.4 0-2.4.7-3.1 3.1-3.1 8 .3 16 .2 24 .2z"/>
  <path fill="#E1CD8D" d="M861.6 559.2c1.5.6 3.7-1.5 4.7.9.9 2-.5 3.5-1.8 4.8-7.9 7.7-8.8 17.8-9.5 27.9-.6 9.5-.8 19-.9 28.5-.1 11.9-2.3 23.5-6.2 34.7-2.5 7.2-5.1 14.4-7.6 21.6-1 2.9-2.7 4.7-5.9 4-3.4-.8-4.4-3.3-3.5-6.6.8-2.9 1.4-5.8 2.6-8.5 8.6-19.2 11.5-39.4 11-60.3-.3-11 .5-22 4.4-32.5 1.3-3.4 2.8-6.7 4.5-10 1.8-3.1 3.6-6.4 8.2-4.5z"/>
  <path fill="#D5E2E9" d="M1244.5 1069.3c-13.2 0-26.3-.1-39.5.1-3.2 0-4.2-.8-4.1-4.1.1-10.4-.1-10.4 10.3-10.4 24 0 48 .1 72-.1 4 0 5.8.6 5.6 5.4-.5 9.1-.1 9.1-9.3 9.1h-35zM1141.3 1183.9c4.2 0 8.4.3 12.5-.1 4-.3 5.5.6 5.3 5-.4 8.8-.3 17.7 0 26.5.1 3.2-1 3.9-3.9 3.8-6.2-.2-12.3 0-18.5-.1-8.1-.1-13.2-4.8-13.5-12.7-.3-6.5.1-13-.1-19.5-.1-2.7 1.2-2.9 3.3-2.9 4.9.1 9.9 0 14.9 0zM968.3 1183.9c4.8 0 9.7.2 14.5-.1 2.7-.1 3.3.9 3.3 3.4-.1 9.5-.1 19 .1 28.5 0 2.6-.6 3.5-3.3 3.4-6.5-.2-13 0-19.5-.1-7.6-.1-12.6-4.5-13.1-12.1-.4-6.8 0-13.6-.2-20.5-.1-2.6 1.4-2.5 3.2-2.5 5 .1 10 0 15 0z"/>
  <path fill="#D4E1E8" d="M1521 1183.9c5 0 10 .1 15-.1 2.4-.1 3.1.8 3.1 3.1-.1 9.8 0 19.6.1 29.4 0 2.4-1 2.7-3 2.7-6.5-.1-13 0-19.5 0-7.8-.1-12.7-4.1-13.3-11.8-.6-6.9-.1-14-.3-20.9 0-2.2 1.2-2.3 2.9-2.3 5 0 10-.1 15-.1zM1347.6 1183.9c4.8 0 9.6.1 14.5 0 1.9 0 3.1.1 3.1 2.5 0 10.1.1 20.2.2 30.4 0 2.3-1.3 2.2-2.9 2.2-7.1 0-14.3.1-21.4-.1-5.8-.2-10.3-4.3-11.1-10.1-1-7.4-.2-14.9-.5-22.4-.1-2.6 1.4-2.5 3.2-2.5 4.9.1 9.9 0 14.9 0z"/>
  <path fill="#D5E2E9" d="M1099.2 962c-9.5 0-18.2-.1-27 0-2.1 0-2.5-1-2.5-2.7v-33c0-.2-.1-.4 0-.5 2.6-3.9 6.5-1.2 9.7-1.7 1.4-.2 4.3-1.8 4.6 1.8 1 13.4 6.3 25.1 15.2 36.1z"/>
  <path fill="#E1CD8D" d="M859.1 532.5c-5 4.5-10 5.7-15.9 4.8-5.6-.9-11.3.4-16.7 1.8-3.3.8-6.3.4-7.2-3.2-1.1-4 1.6-5.7 5.1-6.5 9.1-2.2 18.3-2.8 27.7-1.5 3.2.5 4 3.7 7 4.6zM864.9 546.1c.6 2.9.5 4.9-2.7 5-3.1.1-5.2-1.3-5.2-4.6-.1-3.7 2.6-5.6 5.7-5.6 4.2 0 1.2 3.9 2.2 5.2z"/>
  <path fill="#0B0801" d="M1370.1 287.4h-187.9c-3.3 0-8.1 1.3-8-4 0-5.2 4.8-4 8.1-4h377.3c3.1 0 6.5-.2 6.5 4.1 0 4.5-3.7 3.9-6.6 3.9h-189.4z"/>
  <path fill="#000" d="M1196.6 199.9h136.9c2.4 0 3.7 1.4 3.8 3.7.1 2.3-1.3 3.7-3.5 4.2-1.3.2-2.7.1-4 .1h-266.7c-1.5 0-3 .1-4.5-.3-2.2-.5-3.4-2.1-3.1-4.4.3-2 1.5-3.3 3.7-3.3h137.4z"/>
  <path fill="#0B0801" d="M1054 287.4h-56.4c-2.3 0-4.9.3-5.7-2.7-.8-2.7.4-4.6 3.1-5.2 1.4-.3 3-.2 4.5-.2h109.3c1.3 0 2.7-.1 4 .1 2.4.3 4.2 1.7 4 4.2-.1 2.5-1.9 3.8-4.4 3.8H1054z"/>
  <path fill="#010201" d="M1094.5 717.1c-3.3 1-6.5 2.2-9.8 2.9-2.1.5-4.4.2-5.1-2.6-.6-2.7 1.1-4.5 3.1-5.2 10.9-3.6 21.7-7.5 32.9-10.1 12.7-3 25.5-5.3 38.4-6.9 9.4-1.2 19-1.7 28.5-2.2 35.6-1.9 71.1-.9 106.7-.8 20.5 0 41 1.7 61.4 4.7 21.4 3.2 42.2 8.4 62.5 16 3.4 1.3 4.6 3.4 3.6 6.3-1.1 3.1-4.2 2-6.5 1.5-2-.5-3.9-1.5-5.8-2.5-3.3-1.6-4.8-.1-5.4 3.1-3.4 17.5-9.6 34.2-16.5 50.6-8.4 20.1-19 39.1-31.5 57-12.1 17.4-25.3 34-40.3 49-4.5 4.5-8.8 9.3-13.5 13.7-7 6.4-15.2 9.8-24.3 10-18.1.4-36.3 1.3-54.4-.6-8.5-.9-15.8-4.8-21.9-10.7-26.7-25.7-49.7-54.3-68.1-86.4-14.7-25.8-25.9-53.1-32.5-82.2-.4-1.6-1-3.1-1.5-4.6zM1188 701c-12.1.1-24.1 1.5-36.1 2.9-15.4 1.8-30.4 5-45.3 9-3.5.9-4.1 2.7-3.3 5.6 2.1 7.6 4.1 15.3 6.6 22.8 8.6 25.7 20.1 50 34.6 73 2.3 3.6 4.7 4.8 8.8 4.7 11.5-.2 23-.3 34.5.2 12 .5 24 2.3 36 2.6 21.6.5 43.1-.3 64.6-1.7 16.4-1.1 32.8.8 49.3.8.7 0 1.4-.1 2 .1 4.2 2.2 6.7 0 8.9-3.3 20.2-30.7 34.5-63.9 43.3-99.6.7-3-.4-4.4-3.3-5.2-30.8-8.9-62.4-12.2-94.2-12.7-35.5-.4-71-1-106.4.8zm59.9 192.2c7.3 0 14.7-.1 22 0 9.7.2 17.9-3.2 24.6-10.1 7.4-7.7 14.8-15.3 21.9-23.2 7.8-8.7 15-17.8 21.9-27.2 1.9-2.7 1.6-3.6-1.8-3.7-8.5-.2-16.9-.7-25.4-.9-13.3-.3-26.6.1-39.9.9-17.5 1.1-34.9 1.8-52.4.6-20.1-1.4-40.1-3.1-60.3-2.5-1.4 0-3.3-.8-4 .9-.5 1.3 1 2.3 1.7 3.4 13.4 18.7 28.6 35.9 44.9 52.1 6.6 6.6 14.7 10 24.3 9.8 7.5-.3 15-.1 22.5-.1z"/>
  <path fill="#EBB724" d="M1188 701c35.4-1.8 70.9-1.2 106.3-.7 31.8.5 63.4 3.8 94.2 12.7 2.9.8 4.1 2.2 3.3 5.2-8.8 35.6-23.1 68.9-43.3 99.6-2.2 3.3-4.7 5.5-8.9 3.3-.5-.3-1.3-.1-2-.1-16.4 0-32.9-1.9-49.3-.8-21.5 1.4-43.1 2.3-64.6 1.7-12-.3-24-2.1-36-2.6-11.5-.5-23-.4-34.5-.2-4.1.1-6.5-1.1-8.8-4.7-14.4-23-26-47.3-34.6-73-2.5-7.5-4.5-15.2-6.6-22.8-.8-2.9-.2-4.7 3.3-5.6 14.9-4 30-7.2 45.3-9 12.1-1.5 24.1-2.9 36.2-3z"/>
  <path fill="#007C38" d="M1247.9 893.2c-7.5 0-15-.1-22.5 0-9.5.2-17.6-3.2-24.3-9.8-16.3-16.2-31.5-33.4-44.9-52.1-.7-1-2.3-2.1-1.7-3.4.7-1.7 2.7-.8 4-.9 20.1-.5 40.2 1.2 60.3 2.5 17.4 1.2 34.9.4 52.4-.6 13.3-.8 26.6-1.2 39.9-.9 8.5.2 16.9.7 25.4.9 3.4.1 3.7 1 1.8 3.7-6.8 9.4-14.1 18.5-21.9 27.2-7.1 7.9-14.5 15.6-21.9 23.2-6.7 6.9-14.9 10.3-24.6 10.1-7.3 0-14.7.1-22 .1z"/>
</svg>
